<mxfile host="app.diagrams.net" modified="2024-09-16T14:22:33.314Z" agent="Mozilla/5.0 (Windows NT 10.0; Win64; x64) AppleWebKit/537.36 (KHTML, like Gecko) Chrome/128.0.0.0 Safari/537.36" etag="SQqAPCXu2k9r0vRxfpTr" version="24.3.1" type="github">
  <diagram name="Page-1" id="97916047-d0de-89f5-080d-49f4d83e522f">
    <mxGraphModel dx="755" dy="1724.5" grid="1" gridSize="10" guides="1" tooltips="1" connect="1" arrows="1" fold="1" page="1" pageScale="1.5" pageWidth="1169" pageHeight="827" background="none" math="0" shadow="0">
      <root>
        <mxCell id="0" />
        <mxCell id="1" parent="0" />
        <mxCell id="vHHMoSbnPGJgBAxX_QJV-55" value="app.js" style="rounded=0;whiteSpace=wrap;html=1;" vertex="1" parent="1">
          <mxGeometry x="560" y="170" width="120" height="60" as="geometry" />
        </mxCell>
        <mxCell id="vHHMoSbnPGJgBAxX_QJV-56" value="login container" style="rounded=0;whiteSpace=wrap;html=1;" vertex="1" parent="1">
          <mxGeometry x="730" y="80" width="120" height="60" as="geometry" />
        </mxCell>
        <mxCell id="vHHMoSbnPGJgBAxX_QJV-57" value="chat container" style="rounded=0;whiteSpace=wrap;html=1;" vertex="1" parent="1">
          <mxGeometry x="740" y="250" width="120" height="60" as="geometry" />
        </mxCell>
        <mxCell id="vHHMoSbnPGJgBAxX_QJV-58" value="" style="endArrow=classic;html=1;rounded=0;exitX=0.5;exitY=0;exitDx=0;exitDy=0;entryX=0;entryY=0.5;entryDx=0;entryDy=0;" edge="1" parent="1" source="vHHMoSbnPGJgBAxX_QJV-55" target="vHHMoSbnPGJgBAxX_QJV-56">
          <mxGeometry width="50" height="50" relative="1" as="geometry">
            <mxPoint x="780" y="230" as="sourcePoint" />
            <mxPoint x="830" y="180" as="targetPoint" />
            <Array as="points">
              <mxPoint x="620" y="110" />
            </Array>
          </mxGeometry>
        </mxCell>
        <mxCell id="vHHMoSbnPGJgBAxX_QJV-59" value="" style="endArrow=classic;html=1;rounded=0;exitX=0.5;exitY=1;exitDx=0;exitDy=0;entryX=0;entryY=0.5;entryDx=0;entryDy=0;" edge="1" parent="1" source="vHHMoSbnPGJgBAxX_QJV-55" target="vHHMoSbnPGJgBAxX_QJV-57">
          <mxGeometry width="50" height="50" relative="1" as="geometry">
            <mxPoint x="730" y="230" as="sourcePoint" />
            <mxPoint x="780" y="180" as="targetPoint" />
            <Array as="points">
              <mxPoint x="620" y="280" />
            </Array>
          </mxGeometry>
        </mxCell>
        <mxCell id="vHHMoSbnPGJgBAxX_QJV-60" value="List" style="rounded=0;whiteSpace=wrap;html=1;" vertex="1" parent="1">
          <mxGeometry x="600" y="350" width="120" height="60" as="geometry" />
        </mxCell>
        <mxCell id="vHHMoSbnPGJgBAxX_QJV-61" value="Chat" style="rounded=0;whiteSpace=wrap;html=1;" vertex="1" parent="1">
          <mxGeometry x="750" y="350" width="120" height="60" as="geometry" />
        </mxCell>
        <mxCell id="vHHMoSbnPGJgBAxX_QJV-62" value="Detail" style="rounded=0;whiteSpace=wrap;html=1;" vertex="1" parent="1">
          <mxGeometry x="910" y="350" width="120" height="60" as="geometry" />
        </mxCell>
        <mxCell id="vHHMoSbnPGJgBAxX_QJV-63" value="user info" style="rounded=0;whiteSpace=wrap;html=1;" vertex="1" parent="1">
          <mxGeometry x="590" y="470" width="60" height="40" as="geometry" />
        </mxCell>
        <mxCell id="vHHMoSbnPGJgBAxX_QJV-64" value="chat list" style="rounded=0;whiteSpace=wrap;html=1;" vertex="1" parent="1">
          <mxGeometry x="670" y="470" width="60" height="40" as="geometry" />
        </mxCell>
        <mxCell id="vHHMoSbnPGJgBAxX_QJV-65" value="chat mesage" style="rounded=0;whiteSpace=wrap;html=1;" vertex="1" parent="1">
          <mxGeometry x="750" y="470" width="60" height="40" as="geometry" />
        </mxCell>
        <mxCell id="vHHMoSbnPGJgBAxX_QJV-66" value="text input" style="rounded=0;whiteSpace=wrap;html=1;" vertex="1" parent="1">
          <mxGeometry x="830" y="470" width="60" height="40" as="geometry" />
        </mxCell>
        <mxCell id="vHHMoSbnPGJgBAxX_QJV-67" value="user detail" style="rounded=0;whiteSpace=wrap;html=1;" vertex="1" parent="1">
          <mxGeometry x="910" y="470" width="60" height="40" as="geometry" />
        </mxCell>
        <mxCell id="vHHMoSbnPGJgBAxX_QJV-68" value="chat detail" style="rounded=0;whiteSpace=wrap;html=1;" vertex="1" parent="1">
          <mxGeometry x="990" y="470" width="60" height="40" as="geometry" />
        </mxCell>
        <mxCell id="vHHMoSbnPGJgBAxX_QJV-69" value="logout" style="rounded=0;whiteSpace=wrap;html=1;" vertex="1" parent="1">
          <mxGeometry x="990" y="540" width="60" height="40" as="geometry" />
        </mxCell>
        <mxCell id="vHHMoSbnPGJgBAxX_QJV-71" value="" style="endArrow=none;html=1;rounded=0;" edge="1" parent="1">
          <mxGeometry width="50" height="50" relative="1" as="geometry">
            <mxPoint x="800" y="320" as="sourcePoint" />
            <mxPoint x="800" y="310" as="targetPoint" />
          </mxGeometry>
        </mxCell>
        <mxCell id="vHHMoSbnPGJgBAxX_QJV-72" value="" style="endArrow=none;html=1;rounded=0;" edge="1" parent="1">
          <mxGeometry width="50" height="50" relative="1" as="geometry">
            <mxPoint x="650" y="320" as="sourcePoint" />
            <mxPoint x="970" y="320" as="targetPoint" />
          </mxGeometry>
        </mxCell>
        <mxCell id="vHHMoSbnPGJgBAxX_QJV-73" value="" style="endArrow=classic;html=1;rounded=0;entryX=0.422;entryY=0.005;entryDx=0;entryDy=0;entryPerimeter=0;" edge="1" parent="1" target="vHHMoSbnPGJgBAxX_QJV-60">
          <mxGeometry width="50" height="50" relative="1" as="geometry">
            <mxPoint x="650" y="320" as="sourcePoint" />
            <mxPoint x="760" y="340" as="targetPoint" />
          </mxGeometry>
        </mxCell>
        <mxCell id="vHHMoSbnPGJgBAxX_QJV-74" value="" style="endArrow=classic;html=1;rounded=0;entryX=0.422;entryY=0.005;entryDx=0;entryDy=0;entryPerimeter=0;" edge="1" parent="1">
          <mxGeometry width="50" height="50" relative="1" as="geometry">
            <mxPoint x="800" y="320" as="sourcePoint" />
            <mxPoint x="800.5" y="350" as="targetPoint" />
          </mxGeometry>
        </mxCell>
        <mxCell id="vHHMoSbnPGJgBAxX_QJV-75" value="" style="endArrow=classic;html=1;rounded=0;entryX=0.422;entryY=0.005;entryDx=0;entryDy=0;entryPerimeter=0;" edge="1" parent="1">
          <mxGeometry width="50" height="50" relative="1" as="geometry">
            <mxPoint x="970" y="320" as="sourcePoint" />
            <mxPoint x="970" y="350" as="targetPoint" />
          </mxGeometry>
        </mxCell>
        <mxCell id="vHHMoSbnPGJgBAxX_QJV-78" value="" style="endArrow=none;html=1;rounded=0;" edge="1" parent="1">
          <mxGeometry width="50" height="50" relative="1" as="geometry">
            <mxPoint x="660" y="440" as="sourcePoint" />
            <mxPoint x="660" y="410" as="targetPoint" />
          </mxGeometry>
        </mxCell>
        <mxCell id="vHHMoSbnPGJgBAxX_QJV-79" value="" style="endArrow=none;html=1;rounded=0;" edge="1" parent="1">
          <mxGeometry width="50" height="50" relative="1" as="geometry">
            <mxPoint x="620" y="440" as="sourcePoint" />
            <mxPoint x="700" y="440" as="targetPoint" />
          </mxGeometry>
        </mxCell>
        <mxCell id="vHHMoSbnPGJgBAxX_QJV-80" value="" style="endArrow=classic;html=1;rounded=0;entryX=0.5;entryY=0;entryDx=0;entryDy=0;" edge="1" parent="1" target="vHHMoSbnPGJgBAxX_QJV-63">
          <mxGeometry width="50" height="50" relative="1" as="geometry">
            <mxPoint x="620" y="440" as="sourcePoint" />
            <mxPoint x="670" y="390" as="targetPoint" />
          </mxGeometry>
        </mxCell>
        <mxCell id="vHHMoSbnPGJgBAxX_QJV-81" value="" style="endArrow=classic;html=1;rounded=0;entryX=0.5;entryY=0;entryDx=0;entryDy=0;" edge="1" parent="1">
          <mxGeometry width="50" height="50" relative="1" as="geometry">
            <mxPoint x="699.94" y="440" as="sourcePoint" />
            <mxPoint x="699.94" y="470" as="targetPoint" />
          </mxGeometry>
        </mxCell>
        <mxCell id="vHHMoSbnPGJgBAxX_QJV-83" value="" style="endArrow=none;html=1;rounded=0;" edge="1" parent="1">
          <mxGeometry width="50" height="50" relative="1" as="geometry">
            <mxPoint x="819.8199999999999" y="440" as="sourcePoint" />
            <mxPoint x="819.8199999999999" y="410" as="targetPoint" />
          </mxGeometry>
        </mxCell>
        <mxCell id="vHHMoSbnPGJgBAxX_QJV-84" value="" style="endArrow=none;html=1;rounded=0;" edge="1" parent="1">
          <mxGeometry width="50" height="50" relative="1" as="geometry">
            <mxPoint x="779.8199999999999" y="440" as="sourcePoint" />
            <mxPoint x="859.8199999999999" y="440" as="targetPoint" />
          </mxGeometry>
        </mxCell>
        <mxCell id="vHHMoSbnPGJgBAxX_QJV-85" value="" style="endArrow=classic;html=1;rounded=0;entryX=0.5;entryY=0;entryDx=0;entryDy=0;" edge="1" parent="1">
          <mxGeometry width="50" height="50" relative="1" as="geometry">
            <mxPoint x="779.8199999999999" y="440" as="sourcePoint" />
            <mxPoint x="779.8199999999999" y="470" as="targetPoint" />
          </mxGeometry>
        </mxCell>
        <mxCell id="vHHMoSbnPGJgBAxX_QJV-86" value="" style="endArrow=classic;html=1;rounded=0;entryX=0.5;entryY=0;entryDx=0;entryDy=0;" edge="1" parent="1">
          <mxGeometry width="50" height="50" relative="1" as="geometry">
            <mxPoint x="859.76" y="440" as="sourcePoint" />
            <mxPoint x="859.76" y="470" as="targetPoint" />
          </mxGeometry>
        </mxCell>
        <mxCell id="vHHMoSbnPGJgBAxX_QJV-87" value="" style="endArrow=none;html=1;rounded=0;" edge="1" parent="1">
          <mxGeometry width="50" height="50" relative="1" as="geometry">
            <mxPoint x="980" y="440" as="sourcePoint" />
            <mxPoint x="980" y="410" as="targetPoint" />
          </mxGeometry>
        </mxCell>
        <mxCell id="vHHMoSbnPGJgBAxX_QJV-88" value="" style="endArrow=none;html=1;rounded=0;" edge="1" parent="1">
          <mxGeometry width="50" height="50" relative="1" as="geometry">
            <mxPoint x="940" y="440" as="sourcePoint" />
            <mxPoint x="1020" y="440" as="targetPoint" />
          </mxGeometry>
        </mxCell>
        <mxCell id="vHHMoSbnPGJgBAxX_QJV-89" value="" style="endArrow=classic;html=1;rounded=0;entryX=0.5;entryY=0;entryDx=0;entryDy=0;" edge="1" parent="1">
          <mxGeometry width="50" height="50" relative="1" as="geometry">
            <mxPoint x="940" y="440" as="sourcePoint" />
            <mxPoint x="940" y="470" as="targetPoint" />
          </mxGeometry>
        </mxCell>
        <mxCell id="vHHMoSbnPGJgBAxX_QJV-90" value="" style="endArrow=classic;html=1;rounded=0;entryX=0.5;entryY=0;entryDx=0;entryDy=0;" edge="1" parent="1">
          <mxGeometry width="50" height="50" relative="1" as="geometry">
            <mxPoint x="1019.94" y="440" as="sourcePoint" />
            <mxPoint x="1019.94" y="470" as="targetPoint" />
          </mxGeometry>
        </mxCell>
        <mxCell id="vHHMoSbnPGJgBAxX_QJV-91" value="" style="endArrow=classic;html=1;rounded=0;entryX=0.5;entryY=0;entryDx=0;entryDy=0;" edge="1" parent="1">
          <mxGeometry width="50" height="50" relative="1" as="geometry">
            <mxPoint x="1019.87" y="510" as="sourcePoint" />
            <mxPoint x="1019.87" y="540" as="targetPoint" />
          </mxGeometry>
        </mxCell>
        <mxCell id="vHHMoSbnPGJgBAxX_QJV-92" value="react app" style="rounded=0;whiteSpace=wrap;html=1;" vertex="1" parent="1">
          <mxGeometry x="360" y="170" width="120" height="60" as="geometry" />
        </mxCell>
        <mxCell id="vHHMoSbnPGJgBAxX_QJV-93" value="" style="endArrow=classic;html=1;rounded=0;exitX=1;exitY=0.5;exitDx=0;exitDy=0;entryX=0;entryY=0.5;entryDx=0;entryDy=0;" edge="1" parent="1" source="vHHMoSbnPGJgBAxX_QJV-92" target="vHHMoSbnPGJgBAxX_QJV-55">
          <mxGeometry width="50" height="50" relative="1" as="geometry">
            <mxPoint x="650" y="400" as="sourcePoint" />
            <mxPoint x="700" y="350" as="targetPoint" />
          </mxGeometry>
        </mxCell>
        <mxCell id="vHHMoSbnPGJgBAxX_QJV-94" value="user.setUser" style="text;html=1;align=center;verticalAlign=middle;whiteSpace=wrap;rounded=0;" vertex="1" parent="1">
          <mxGeometry x="590" y="200" width="60" height="30" as="geometry" />
        </mxCell>
        <mxCell id="vHHMoSbnPGJgBAxX_QJV-96" value="user.setUser" style="text;html=1;align=center;verticalAlign=middle;resizable=0;points=[];autosize=1;strokeColor=none;fillColor=none;" vertex="1" parent="1">
          <mxGeometry x="625" y="258" width="90" height="30" as="geometry" />
        </mxCell>
        <mxCell id="vHHMoSbnPGJgBAxX_QJV-97" value="user" style="text;html=1;align=center;verticalAlign=middle;resizable=0;points=[];autosize=1;strokeColor=none;fillColor=none;" vertex="1" parent="1">
          <mxGeometry x="615" y="298" width="50" height="30" as="geometry" />
        </mxCell>
        <mxCell id="vHHMoSbnPGJgBAxX_QJV-98" value="user" style="text;html=1;align=center;verticalAlign=middle;resizable=0;points=[];autosize=1;strokeColor=none;fillColor=none;" vertex="1" parent="1">
          <mxGeometry x="800" y="320" width="50" height="30" as="geometry" />
        </mxCell>
        <mxCell id="vHHMoSbnPGJgBAxX_QJV-99" value="setUser user" style="text;html=1;align=center;verticalAlign=middle;resizable=0;points=[];autosize=1;strokeColor=none;fillColor=none;" vertex="1" parent="1">
          <mxGeometry x="930" y="298" width="90" height="30" as="geometry" />
        </mxCell>
        <mxCell id="vHHMoSbnPGJgBAxX_QJV-100" value="setUser user" style="text;html=1;align=center;verticalAlign=middle;resizable=0;points=[];autosize=1;strokeColor=none;fillColor=none;" vertex="1" parent="1">
          <mxGeometry x="975" y="410" width="90" height="30" as="geometry" />
        </mxCell>
        <mxCell id="vHHMoSbnPGJgBAxX_QJV-101" value="setUser user" style="text;html=1;align=center;verticalAlign=middle;resizable=0;points=[];autosize=1;strokeColor=none;fillColor=none;" vertex="1" parent="1">
          <mxGeometry x="1020" y="510" width="90" height="30" as="geometry" />
        </mxCell>
        <mxCell id="vHHMoSbnPGJgBAxX_QJV-102" value="user" style="text;html=1;align=center;verticalAlign=middle;resizable=0;points=[];autosize=1;strokeColor=none;fillColor=none;" vertex="1" parent="1">
          <mxGeometry x="820" y="410" width="50" height="30" as="geometry" />
        </mxCell>
        <mxCell id="vHHMoSbnPGJgBAxX_QJV-103" value="user" style="text;html=1;align=center;verticalAlign=middle;resizable=0;points=[];autosize=1;strokeColor=none;fillColor=none;" vertex="1" parent="1">
          <mxGeometry x="660" y="410" width="50" height="30" as="geometry" />
        </mxCell>
        <mxCell id="vHHMoSbnPGJgBAxX_QJV-104" value="user" style="rounded=1;whiteSpace=wrap;html=1;fillColor=#D4E1F5;strokeColor=#FFFFCC;" vertex="1" parent="1">
          <mxGeometry x="840" y="240" width="50" height="18" as="geometry" />
        </mxCell>
        <mxCell id="vHHMoSbnPGJgBAxX_QJV-105" value="user" style="rounded=1;whiteSpace=wrap;html=1;fillColor=#D4E1F5;strokeColor=#FFFFCC;" vertex="1" parent="1">
          <mxGeometry x="675" y="500" width="50" height="18" as="geometry" />
        </mxCell>
        <mxCell id="vHHMoSbnPGJgBAxX_QJV-106" value="&lt;b&gt;&lt;font style=&quot;font-size: 18px;&quot;&gt;STATE&lt;/font&gt;&lt;/b&gt;&lt;div&gt;&lt;br&gt;&lt;/div&gt;&lt;div&gt;&lt;b&gt;&lt;font size=&quot;3&quot;&gt;user, setUser&lt;/font&gt;&lt;/b&gt;&lt;/div&gt;" style="rounded=1;whiteSpace=wrap;html=1;fillColor=#D4E1F5;strokeColor=#FFFFCC;" vertex="1" parent="1">
          <mxGeometry x="1110" y="30" width="210" height="120" as="geometry" />
        </mxCell>
        <mxCell id="vHHMoSbnPGJgBAxX_QJV-107" value="store" style="text;html=1;align=center;verticalAlign=middle;resizable=0;points=[];autosize=1;strokeColor=none;fillColor=none;" vertex="1" parent="1">
          <mxGeometry x="1105" y="-2" width="50" height="30" as="geometry" />
        </mxCell>
      </root>
    </mxGraphModel>
  </diagram>
</mxfile>
